<svg version="1.1" viewBox="0.0 0.0 1614.267716535433 1104.3044619422571" fill="none" stroke="none" stroke-linecap="square" stroke-miterlimit="10" xmlns:xlink="http://www.w3.org/1999/xlink" xmlns="http://www.w3.org/2000/svg"><clipPath id="p.0"><path d="m0 0l1614.2677 0l0 1104.3044l-1614.2677 0l0 -1104.3044z" clip-rule="nonzero"/></clipPath><g clip-path="url(#p.0)"><path fill="#000000" fill-opacity="0.0" d="m0 0l1614.2677 0l0 1104.3044l-1614.2677 0z" fill-rule="evenodd"/><g filter="url(#shadowFilter-p.1)"><use xlink:href="#p.1" transform="matrix(1.0 0.0 0.0 1.0 0.0 8.0)"/></g><defs><filter id="shadowFilter-p.1" filterUnits="userSpaceOnUse"><feGaussianBlur in="SourceAlpha" stdDeviation="8.5" result="blur"/><feComponentTransfer in="blur" color-interpolation-filters="sRGB"><feFuncR type="linear" slope="0" intercept="0.0"/><feFuncG type="linear" slope="0" intercept="0.0"/><feFuncB type="linear" slope="0" intercept="0.0"/><feFuncA type="linear" slope="0.19" intercept="0"/></feComponentTransfer></filter></defs><g id="p.1"><path fill="#ff61be" d="m171.5608 492.5919c-13.452316 25.987335 -35.618546 110.828094 -42.191605 152.25461c-6.5730515 41.426514 -4.125984 72.30444 2.7532806 96.30444c6.8792725 24.0 24.764221 35.46631 38.52231 47.695557c13.758102 12.229248 18.344711 30.112854 44.026245 25.67981c25.68155 -4.4331055 88.967636 -32.25287 110.063 -52.27826c21.095367 -20.02533 19.108032 -42.956665 16.509186 -67.87402c-2.598877 -24.917297 -16.66275 -53.502625 -32.102356 -81.62988c-15.439636 -28.12732 -44.025818 -66.49695 -60.535446 -87.13385c-16.509628 -20.636932 -25.681534 -31.184631 -38.52231 -36.687683c-12.840775 -5.5030518 -25.069992 -22.318024 -38.52231 3.669281z" fill-rule="evenodd"/></g><g filter="url(#shadowFilter-p.2)"><use xlink:href="#p.2" transform="matrix(1.0 0.0 0.0 1.0 0.0 8.0)"/></g><defs><filter id="shadowFilter-p.2" filterUnits="userSpaceOnUse"><feGaussianBlur in="SourceAlpha" stdDeviation="8.5" result="blur"/><feComponentTransfer in="blur" color-interpolation-filters="sRGB"><feFuncR type="linear" slope="0" intercept="0.0"/><feFuncG type="linear" slope="0" intercept="0.0"/><feFuncB type="linear" slope="0" intercept="0.0"/><feFuncA type="linear" slope="0.19" intercept="0"/></feComponentTransfer></filter></defs><g id="p.2"><path fill="#a23e79" d="m205.0137 960.36176c-41.73271 25.070007 -87.7454 38.982056 -105.477684 57.78479c-17.732285 18.802673 -49.221786 44.6369 -0.916008 55.031433c48.30577 10.394653 190.16447 15.896851 290.75067 7.3360596c100.58618 -8.560791 264.15485 -14.675415 312.76642 -58.700806c48.61151 -44.02539 37.603638 -179.77039 -21.097107 -205.45148c-58.700806 -25.681091 -251.76993 27.364807 -331.10764 51.364807c-79.33771 24.0 -103.18591 67.565186 -144.91864 92.63519z" fill-rule="evenodd"/></g><g filter="url(#shadowFilter-p.3)"><use xlink:href="#p.3" transform="matrix(1.0 0.0 0.0 1.0 0.0 8.0)"/></g><defs><filter id="shadowFilter-p.3" filterUnits="userSpaceOnUse"><feGaussianBlur in="SourceAlpha" stdDeviation="8.5" result="blur"/><feComponentTransfer in="blur" color-interpolation-filters="sRGB"><feFuncR type="linear" slope="0" intercept="0.0"/><feFuncG type="linear" slope="0" intercept="0.0"/><feFuncB type="linear" slope="0" intercept="0.0"/><feFuncA type="linear" slope="0.19" intercept="0"/></feComponentTransfer></filter></defs><g id="p.3"><path fill="#ff9dd7" d="m75.41046 752.5051c14.67498 11.770386 29.043747 71.69293 43.107613 96.304504c14.063866 24.611511 26.294395 38.676697 41.27558 51.364807c14.981201 12.68811 25.834656 20.94226 48.611557 24.763794c22.776901 3.8215332 64.814514 3.057312 88.049866 -1.8346558c23.235352 -4.891968 37.14566 -14.370544 51.362213 -27.517029c14.216522 -13.146545 26.599304 -32.559937 33.93701 -51.362244c7.3377075 -18.802246 14.216522 -42.190308 10.089233 -61.451416c-4.127289 -19.26117 -14.674561 -39.74585 -34.853027 -54.11548c-20.178467 -14.36969 -64.35782 -26.599304 -86.217834 -32.102417c-21.860031 -5.5030518 -40.814972 5.045532 -44.94226 -0.9159546c-4.127304 -5.961548 1.8346405 -28.432678 20.178467 -34.853027c18.343842 -6.42041 56.101044 -8.713928 89.88452 -3.6693115c33.783447 5.0446167 83.312775 13.911621 112.816284 33.93701c29.503479 20.02539 49.22397 53.34906 64.20468 86.21521c14.980774 32.86615 23.845581 71.08356 25.67981 110.98163c1.8342285 39.89807 5.045044 93.09491 -14.674561 128.40686c-19.719574 35.31183 -59.617645 68.9422 -103.643005 83.46454c-44.02539 14.522339 -105.63037 7.1850586 -160.50919 3.6693115c-54.87883 -3.515747 -131.1588 -6.2668457 -168.7638 -24.763794c-37.60499 -18.496948 -46.776905 -36.07788 -56.866146 -86.217834c-10.089237 -50.140015 -10.548117 -174.57129 -3.6692905 -214.62207c6.878828 -40.05072 30.267279 -37.45276 44.94226 -25.682434z" fill-rule="evenodd"/></g><g filter="url(#shadowFilter-p.4)"><use xlink:href="#p.4" transform="matrix(1.0 0.0 0.0 1.0 0.0 8.0)"/></g><defs><filter id="shadowFilter-p.4" filterUnits="userSpaceOnUse"><feGaussianBlur in="SourceAlpha" stdDeviation="8.5" result="blur"/><feComponentTransfer in="blur" color-interpolation-filters="sRGB"><feFuncR type="linear" slope="0" intercept="0.0"/><feFuncG type="linear" slope="0" intercept="0.0"/><feFuncB type="linear" slope="0" intercept="0.0"/><feFuncA type="linear" slope="0.19" intercept="0"/></feComponentTransfer></filter></defs><g id="p.4"><path fill="#ff9dd7" d="m595.739 735.6466c2.4458008 51.974182 -15.286926 168.15265 18.343872 202.7008c33.6308 34.548096 153.32587 60.536743 183.44092 4.5878906c30.115051 -55.94879 30.268616 -287.542 -2.7506714 -340.28082c-33.019226 -52.73883 -162.19244 1.6824341 -195.3648 23.847778c-33.172363 22.165344 -6.1150513 57.170166 -3.6693115 109.14435z" fill-rule="evenodd"/></g><g filter="url(#shadowFilter-p.5)"><use xlink:href="#p.5" transform="matrix(1.0 0.0 0.0 1.0 0.0 8.0)"/></g><defs><filter id="shadowFilter-p.5" filterUnits="userSpaceOnUse"><feGaussianBlur in="SourceAlpha" stdDeviation="8.5" result="blur"/><feComponentTransfer in="blur" color-interpolation-filters="sRGB"><feFuncR type="linear" slope="0" intercept="0.0"/><feFuncG type="linear" slope="0" intercept="0.0"/><feFuncB type="linear" slope="0" intercept="0.0"/><feFuncA type="linear" slope="0.19" intercept="0"/></feComponentTransfer></filter></defs><g id="p.5"><path fill="#ff61be" d="m1000.2258 803.5227c-14.981201 -9.325012 -59.466797 -38.523193 -81.63257 -44.026245c-22.165771 -5.5030518 -31.336853 3.670166 -51.362183 11.007874c-20.02539 7.3377075 -55.94928 20.177612 -68.79004 33.01837c-12.840759 12.840759 -12.535034 24.918213 -8.254578 44.026245c4.2803955 19.108032 20.026245 53.807068 33.93695 70.62201c13.910767 16.815002 28.5849 24.917358 49.527588 30.267761c20.942688 5.350403 53.81012 8.71344 76.1286 1.8346558c22.318481 -6.878845 46.622925 -27.209595 57.782166 -43.107666c11.159241 -15.898071 9.020142 -36.994263 9.173218 -52.280823c0.1531372 -15.286499 -5.5030518 -30.87793 -8.254578 -39.438293c-2.7515259 -8.560364 6.7265625 -2.598877 -8.254578 -11.923889z" fill-rule="evenodd"/></g><g filter="url(#shadowFilter-p.6)"><use xlink:href="#p.6" transform="matrix(1.0 0.0 0.0 1.0 0.0 8.0)"/></g><defs><filter id="shadowFilter-p.6" filterUnits="userSpaceOnUse"><feGaussianBlur in="SourceAlpha" stdDeviation="8.5" result="blur"/><feComponentTransfer in="blur" color-interpolation-filters="sRGB"><feFuncR type="linear" slope="0" intercept="0.0"/><feFuncG type="linear" slope="0" intercept="0.0"/><feFuncB type="linear" slope="0" intercept="0.0"/><feFuncA type="linear" slope="0.19" intercept="0"/></feComponentTransfer></filter></defs><g id="p.6"><path fill="#a23e79" d="m775.85425 191.98425c20.942688 51.66841 55.94928 178.39456 87.13385 192.61154c31.184631 14.21698 62.82721 -78.72397 99.973755 -107.30969c37.146545 -28.585754 120.3067 -42.344727 122.90558 -64.20474c2.598877 -21.860016 -96.45892 -37.146545 -107.31238 -66.95537c-10.853455 -29.808846 60.077026 -108.076126 42.19159 -111.897644c-17.885376 -3.8215237 -102.26813 82.24234 -149.5039 88.968506c-47.23578 6.7261505 -118.012695 -60.07612 -133.91077 -48.61155c-15.898071 11.464561 17.57959 65.73054 38.522278 117.39895z" fill-rule="evenodd"/></g><g filter="url(#shadowFilter-p.7)"><use xlink:href="#p.7" transform="matrix(1.0 0.0 0.0 1.0 0.0 8.0)"/></g><defs><filter id="shadowFilter-p.7" filterUnits="userSpaceOnUse"><feGaussianBlur in="SourceAlpha" stdDeviation="8.5" result="blur"/><feComponentTransfer in="blur" color-interpolation-filters="sRGB"><feFuncR type="linear" slope="0" intercept="0.0"/><feFuncG type="linear" slope="0" intercept="0.0"/><feFuncB type="linear" slope="0" intercept="0.0"/><feFuncA type="linear" slope="0.19" intercept="0"/></feComponentTransfer></filter></defs><g id="p.7"><path fill="#ff61be" d="m631.7663 866.4227c-22.318481 -31.031982 -83.92474 -9.785217 -114.65094 -2.753296c-30.726135 7.0319214 -53.807953 25.836365 -69.706024 44.944885c-15.898071 19.10846 -27.058167 50.59796 -25.682404 69.70599c1.3757629 19.108093 17.580048 33.324585 33.93701 44.94226c16.356934 11.617676 31.644348 20.330688 64.20471 24.763794c32.560364 4.4331055 112.50787 32.10193 131.15747 1.8345947c18.649597 -30.267212 3.0586548 -152.40631 -19.259827 -183.43823z" fill-rule="evenodd"/></g><g filter="url(#shadowFilter-p.8)"><use xlink:href="#p.8" transform="matrix(1.0 0.0 0.0 1.0 0.0 8.0)"/></g><defs><filter id="shadowFilter-p.8" filterUnits="userSpaceOnUse"><feGaussianBlur in="SourceAlpha" stdDeviation="8.5" result="blur"/><feComponentTransfer in="blur" color-interpolation-filters="sRGB"><feFuncR type="linear" slope="0" intercept="0.0"/><feFuncG type="linear" slope="0" intercept="0.0"/><feFuncB type="linear" slope="0" intercept="0.0"/><feFuncA type="linear" slope="0.19" intercept="0"/></feComponentTransfer></filter></defs><g id="p.8"><path fill="#ff9dd7" d="m435.74054 454.987c-15.898071 -14.522308 -68.79004 -80.10193 -95.38846 -87.13388c-26.59842 -7.0319214 -68.48248 27.056885 -64.20209 44.94226c4.2803955 17.885406 86.82721 37.146973 89.88452 62.370087c3.0572815 25.223083 -68.789154 66.650024 -71.54068 88.968506c-2.7515564 22.318481 35.92343 54.878845 55.031494 44.94226c19.108032 -9.936584 31.64215 -102.11594 59.61679 -104.561676c27.97461 -2.4457703 83.772095 88.358246 108.23099 89.887115c24.458862 1.5288696 48.458862 -60.229675 38.522278 -80.71393c-9.936584 -20.484222 -98.44705 -25.835052 -98.14172 -42.19156c0.30532837 -16.356537 91.41339 -37.450592 99.973755 -55.94751c8.560364 -18.496948 -27.363525 -59.92566 -48.61154 -55.03412c-21.248047 4.89151 -65.73053 70.319336 -78.87665 84.38318" fill-rule="evenodd"/></g><g filter="url(#shadowFilter-p.9)"><use xlink:href="#p.9" transform="matrix(1.0 0.0 0.0 1.0 0.0 8.0)"/></g><defs><filter id="shadowFilter-p.9" filterUnits="userSpaceOnUse"><feGaussianBlur in="SourceAlpha" stdDeviation="8.5" result="blur"/><feComponentTransfer in="blur" color-interpolation-filters="sRGB"><feFuncR type="linear" slope="0" intercept="0.0"/><feFuncG type="linear" slope="0" intercept="0.0"/><feFuncB type="linear" slope="0" intercept="0.0"/><feFuncA type="linear" slope="0.19" intercept="0"/></feComponentTransfer></filter></defs><g id="p.9"><path fill="#ff61be" d="m1655.3973 316.5935c-8.866089 -32.86612 -35.617188 -122.13954 -79.795166 -128.40681c-44.1781 -6.267273 -161.88452 58.089676 -185.27307 90.80315c-23.388428 32.71347 5.1973877 87.74542 44.94226 105.47769c39.744995 17.7323 156.83997 12.228363 193.52759 0.9160156c36.687744 -11.312347 35.4646 -35.92389 26.598389 -68.79004z" fill-rule="evenodd"/></g><g filter="url(#shadowFilter-p.10)"><use xlink:href="#p.10" transform="matrix(1.0 0.0 0.0 1.0 0.0 8.0)"/></g><defs><filter id="shadowFilter-p.10" filterUnits="userSpaceOnUse"><feGaussianBlur in="SourceAlpha" stdDeviation="8.5" result="blur"/><feComponentTransfer in="blur" color-interpolation-filters="sRGB"><feFuncR type="linear" slope="0" intercept="0.0"/><feFuncG type="linear" slope="0" intercept="0.0"/><feFuncB type="linear" slope="0" intercept="0.0"/><feFuncA type="linear" slope="0.19" intercept="0"/></feComponentTransfer></filter></defs><g id="p.10"><path fill="#ff61be" d="m337.09253 957.6123c21.401123 -41.42694 -71.08356 -230.98297 -110.98163 -227.46722c-39.898087 3.515747 -146.90378 210.65051 -128.40683 248.5617c18.496933 37.911194 217.9873 20.332458 239.38846 -21.094482z" fill-rule="evenodd"/></g><g filter="url(#shadowFilter-p.11)"><use xlink:href="#p.11" transform="matrix(1.0 0.0 0.0 1.0 0.0 8.0)"/></g><defs><filter id="shadowFilter-p.11" filterUnits="userSpaceOnUse"><feGaussianBlur in="SourceAlpha" stdDeviation="8.5" result="blur"/><feComponentTransfer in="blur" color-interpolation-filters="sRGB"><feFuncR type="linear" slope="0" intercept="0.0"/><feFuncG type="linear" slope="0" intercept="0.0"/><feFuncB type="linear" slope="0" intercept="0.0"/><feFuncA type="linear" slope="0.19" intercept="0"/></feComponentTransfer></filter></defs><g id="p.11"><path fill="#ff61be" d="m711.49335 411.878c-24.15271 39.43921 -125.96063 180.22748 -76.12604 208.20209c49.834656 27.97467 342.4204 -22.163574 375.1339 -40.35431c32.7135 -18.190735 -140.4834 -36.076538 -178.85303 -68.79004c-38.36963 -32.71347 -31.33905 -110.98117 -51.36487 -127.490814c-20.025757 -16.509613 -44.63733 -11.0061035 -68.78998 28.433075z" fill-rule="evenodd"/></g><g filter="url(#shadowFilter-p.12)"><use xlink:href="#p.12" transform="matrix(1.0 0.0 0.0 1.0 0.0 8.0)"/></g><defs><filter id="shadowFilter-p.12" filterUnits="userSpaceOnUse"><feGaussianBlur in="SourceAlpha" stdDeviation="8.5" result="blur"/><feComponentTransfer in="blur" color-interpolation-filters="sRGB"><feFuncR type="linear" slope="0" intercept="0.0"/><feFuncG type="linear" slope="0" intercept="0.0"/><feFuncB type="linear" slope="0" intercept="0.0"/><feFuncA type="linear" slope="0.19" intercept="0"/></feComponentTransfer></filter></defs><g id="p.12"><path fill="#a23e79" d="m841.4195 880.0498c-21.40155 25.37622 -92.6369 140.63782 -93.55377 177.93701c-0.91693115 37.299194 61.453613 44.024048 88.05249 45.858276c26.598877 1.8342285 57.78302 -15.286133 71.54065 -34.853027c13.75769 -19.566895 16.202576 -55.338135 11.005249 -82.548584c-5.1972656 -27.210388 -29.348206 -62.98163 -42.188965 -80.71387c-12.840759 -17.7323 -13.454041 -51.05603 -34.85565 -25.67981z" fill-rule="evenodd"/></g><g filter="url(#shadowFilter-p.13)"><use xlink:href="#p.13" transform="matrix(1.0 0.0 0.0 1.0 0.0 8.0)"/></g><defs><filter id="shadowFilter-p.13" filterUnits="userSpaceOnUse"><feGaussianBlur in="SourceAlpha" stdDeviation="8.5" result="blur"/><feComponentTransfer in="blur" color-interpolation-filters="sRGB"><feFuncR type="linear" slope="0" intercept="0.0"/><feFuncG type="linear" slope="0" intercept="0.0"/><feFuncB type="linear" slope="0" intercept="0.0"/><feFuncA type="linear" slope="0.19" intercept="0"/></feComponentTransfer></filter></defs><g id="p.13"><path fill="#ff61be" d="m1208.434 1018.17236c-20.79004 -49.52887 -89.121704 -245.9624 -119.236206 -265.07086c-30.114624 -19.10852 -35.923096 102.57257 -61.451538 150.41992c-25.528381 47.84735 -93.553345 106.70209 -91.71912 136.664c1.8342285 29.962036 56.405945 41.426147 102.724365 43.107666c46.31848 1.6815186 146.906 -22.164917 175.1864 -33.018433c28.280396 -10.853394 15.286133 17.426514 -5.5039062 -32.102295z" fill-rule="evenodd"/></g><g filter="url(#shadowFilter-p.14)"><use xlink:href="#p.14" transform="matrix(1.0 0.0 0.0 1.0 0.0 8.0)"/></g><defs><filter id="shadowFilter-p.14" filterUnits="userSpaceOnUse"><feGaussianBlur in="SourceAlpha" stdDeviation="8.5" result="blur"/><feComponentTransfer in="blur" color-interpolation-filters="sRGB"><feFuncR type="linear" slope="0" intercept="0.0"/><feFuncG type="linear" slope="0" intercept="0.0"/><feFuncB type="linear" slope="0" intercept="0.0"/><feFuncA type="linear" slope="0.19" intercept="0"/></feComponentTransfer></filter></defs><g id="p.14"><path fill="#ff9dd7" d="m915.9936 104.37063c-42.49646 1.5284348 98.4458 109.1448 113.73236 159.59055c15.286499 50.44574 -52.280457 118.93088 -22.013184 143.08398c30.267334 24.153107 157.45142 27.210419 203.61682 1.8346558c46.165283 -25.375763 122.59802 -103.33771 73.37537 -154.08925c-49.222656 -50.751526 -326.21484 -151.94838 -368.71136 -150.41995z" fill-rule="evenodd"/></g><g filter="url(#shadowFilter-p.15)"><use xlink:href="#p.15" transform="matrix(1.0 0.0 0.0 1.0 0.0 8.0)"/></g><defs><filter id="shadowFilter-p.15" filterUnits="userSpaceOnUse"><feGaussianBlur in="SourceAlpha" stdDeviation="8.5" result="blur"/><feComponentTransfer in="blur" color-interpolation-filters="sRGB"><feFuncR type="linear" slope="0" intercept="0.0"/><feFuncG type="linear" slope="0" intercept="0.0"/><feFuncB type="linear" slope="0" intercept="0.0"/><feFuncA type="linear" slope="0.19" intercept="0"/></feComponentTransfer></filter></defs><g id="p.15"><path fill="#a23e79" d="m1119.6705 247.60335c-23.23584 2.445755 -23.695557 5.35083 -19.262451 23.847763c4.4331055 18.496948 26.752441 77.3504 45.86084 87.13385c19.10852 9.783478 53.197754 -11.464996 68.79004 -28.433044c15.592285 -16.968079 40.661865 -59.61725 24.763794 -73.375336c-15.898071 -13.758102 -96.91638 -11.618988 -120.15222 -9.173233z" fill-rule="evenodd"/></g><g filter="url(#shadowFilter-p.16)"><use xlink:href="#p.16" transform="matrix(1.0 0.0 0.0 1.0 0.0 8.0)"/></g><defs><filter id="shadowFilter-p.16" filterUnits="userSpaceOnUse"><feGaussianBlur in="SourceAlpha" stdDeviation="8.5" result="blur"/><feComponentTransfer in="blur" color-interpolation-filters="sRGB"><feFuncR type="linear" slope="0" intercept="0.0"/><feFuncG type="linear" slope="0" intercept="0.0"/><feFuncB type="linear" slope="0" intercept="0.0"/><feFuncA type="linear" slope="0.19" intercept="0"/></feComponentTransfer></filter></defs><g id="p.16"><path fill="#ff9dd7" d="m1293.9141 188.5946c-58.39453 7.3377075 -133.29834 128.40683 -165.09448 205.45145c-31.796143 77.04462 -81.93701 206.6763 -25.682373 256.81625c56.254517 50.140015 300.5349 94.16406 363.20996 44.02362c62.674927 -50.14038 41.578735 -260.48425 12.839844 -344.86612c-28.73877 -84.3819 -126.87842 -168.76291 -185.27295 -161.4252z" fill-rule="evenodd"/></g><g filter="url(#shadowFilter-p.17)"><use xlink:href="#p.17" transform="matrix(1.0 0.0 0.0 1.0 0.0 8.0)"/></g><defs><filter id="shadowFilter-p.17" filterUnits="userSpaceOnUse"><feGaussianBlur in="SourceAlpha" stdDeviation="8.5" result="blur"/><feComponentTransfer in="blur" color-interpolation-filters="sRGB"><feFuncR type="linear" slope="0" intercept="0.0"/><feFuncG type="linear" slope="0" intercept="0.0"/><feFuncB type="linear" slope="0" intercept="0.0"/><feFuncA type="linear" slope="0.19" intercept="0"/></feComponentTransfer></filter></defs><g id="p.17"><path fill="#ff61be" d="m1317.0924 440.93143c-25.987305 43.108063 85.60498 325.90988 133.91077 339.3622c48.305786 13.452332 178.24231 -202.08795 155.92383 -258.64832c-22.31836 -56.560364 -263.8473 -123.82193 -289.8346 -80.7139z" fill-rule="evenodd"/></g><g filter="url(#shadowFilter-p.18)"><use xlink:href="#p.18" transform="matrix(1.0 0.0 0.0 1.0 0.0 8.0)"/></g><defs><filter id="shadowFilter-p.18" filterUnits="userSpaceOnUse"><feGaussianBlur in="SourceAlpha" stdDeviation="8.5" result="blur"/><feComponentTransfer in="blur" color-interpolation-filters="sRGB"><feFuncR type="linear" slope="0" intercept="0.0"/><feFuncG type="linear" slope="0" intercept="0.0"/><feFuncB type="linear" slope="0" intercept="0.0"/><feFuncA type="linear" slope="0.19" intercept="0"/></feComponentTransfer></filter></defs><g id="p.18"><path fill="#a23e79" d="m1100.6345 705.3811c7.6434326 -41.57959 22.012695 -177.62994 0 -205.45145c-22.012695 -27.821533 -99.97418 21.707367 -132.07611 38.52231c-32.10193 16.814941 -61.758545 21.399414 -60.53546 62.36743c1.2230835 40.96808 34.54901 142.16711 67.87402 183.44098c33.325012 41.273804 118.93005 70.010925 132.07617 64.20209c13.146118 -5.808838 -51.97644 -75.20825 -53.199463 -99.055115c-1.2231445 -23.846924 38.217407 -2.4466553 45.86084 -44.026245z" fill-rule="evenodd"/></g><g filter="url(#shadowFilter-p.19)"><use xlink:href="#p.19" transform="matrix(1.0 0.0 0.0 1.0 0.0 8.0)"/></g><defs><filter id="shadowFilter-p.19" filterUnits="userSpaceOnUse"><feGaussianBlur in="SourceAlpha" stdDeviation="8.5" result="blur"/><feComponentTransfer in="blur" color-interpolation-filters="sRGB"><feFuncR type="linear" slope="0" intercept="0.0"/><feFuncG type="linear" slope="0" intercept="0.0"/><feFuncB type="linear" slope="0" intercept="0.0"/><feFuncA type="linear" slope="0.19" intercept="0"/></feComponentTransfer></filter></defs><g id="p.19"><path fill="#ff61be" d="m1361.1188 732.89484c-42.49695 -28.433105 -71.541504 -97.52716 -113.7323 -102.72443c-42.190674 -5.1973267 -126.2655 28.738403 -139.41199 71.54065c-13.146606 42.802307 16.507324 148.27911 60.532715 185.27301c44.02539 36.993835 147.97595 51.05945 203.6195 36.690247c55.643433 -14.369202 132.07605 -91.10889 130.24146 -122.90552c-1.8347168 -31.79657 -98.75244 -39.440918 -141.24939 -67.87396z" fill-rule="evenodd"/></g><g filter="url(#shadowFilter-p.20)"><use xlink:href="#p.20" transform="matrix(1.0 0.0 0.0 1.0 0.0 8.0)"/></g><defs><filter id="shadowFilter-p.20" filterUnits="userSpaceOnUse"><feGaussianBlur in="SourceAlpha" stdDeviation="8.5" result="blur"/><feComponentTransfer in="blur" color-interpolation-filters="sRGB"><feFuncR type="linear" slope="0" intercept="0.0"/><feFuncG type="linear" slope="0" intercept="0.0"/><feFuncB type="linear" slope="0" intercept="0.0"/><feFuncA type="linear" slope="0.19" intercept="0"/></feComponentTransfer></filter></defs><g id="p.20"><path fill="#ff9dd7" d="m841.9837 114.7056c-26.29309 30.573486 -126.26727 136.05031 -170.59845 130.24147c-44.331116 -5.808838 -121.68152 -134.521 -95.38843 -165.09448c26.29309 -30.573486 208.8158 -24.155289 253.14697 -18.346455c44.331116 5.8088417 39.132996 22.625988 12.839905 53.199474z" fill-rule="evenodd"/></g><g filter="url(#shadowFilter-p.21)"><use xlink:href="#p.21" transform="matrix(1.0 0.0 0.0 1.0 0.0 8.0)"/></g><defs><filter id="shadowFilter-p.21" filterUnits="userSpaceOnUse"><feGaussianBlur in="SourceAlpha" stdDeviation="8.5" result="blur"/><feComponentTransfer in="blur" color-interpolation-filters="sRGB"><feFuncR type="linear" slope="0" intercept="0.0"/><feFuncG type="linear" slope="0" intercept="0.0"/><feFuncB type="linear" slope="0" intercept="0.0"/><feFuncA type="linear" slope="0.19" intercept="0"/></feComponentTransfer></filter></defs><g id="p.21"><path fill="#ff61be" d="m168.76419 79.85253c39.439636 40.96807 322.85303 245.19553 379.71915 232.96588c56.86615 -12.229675 0.9173584 -265.37576 -38.52231 -306.34384c-39.439636 -40.968063 -141.24933 48.305775 -198.11548 60.53543c-56.866135 12.22966 -182.521 -28.125542 -143.08136 12.842522z" fill-rule="evenodd"/></g><g filter="url(#shadowFilter-p.22)"><use xlink:href="#p.22" transform="matrix(1.0 0.0 0.0 1.0 0.0 8.0)"/></g><defs><filter id="shadowFilter-p.22" filterUnits="userSpaceOnUse"><feGaussianBlur in="SourceAlpha" stdDeviation="8.5" result="blur"/><feComponentTransfer in="blur" color-interpolation-filters="sRGB"><feFuncR type="linear" slope="0" intercept="0.0"/><feFuncG type="linear" slope="0" intercept="0.0"/><feFuncB type="linear" slope="0" intercept="0.0"/><feFuncA type="linear" slope="0.19" intercept="0"/></feComponentTransfer></filter></defs><g id="p.22"><path fill="#ff61be" d="m-12.841809 353.1753c44.331146 -31.796143 206.67455 -70.92868 245.8084 -47.6929c39.13385 23.235779 18.650925 134.2161 -11.005249 187.1076c-29.656158 52.89151 -124.434814 129.62991 -166.93175 130.24149c-42.49694 0.61151123 -76.73797 -81.62952 -88.049866 -126.572205c-11.311897 -44.942688 -24.152668 -111.28781 20.178478 -143.08398z" fill-rule="evenodd"/></g><g filter="url(#shadowFilter-p.23)"><use xlink:href="#p.23" transform="matrix(1.0 0.0 0.0 1.0 0.0 8.0)"/></g><defs><filter id="shadowFilter-p.23" filterUnits="userSpaceOnUse"><feGaussianBlur in="SourceAlpha" stdDeviation="8.5" result="blur"/><feComponentTransfer in="blur" color-interpolation-filters="sRGB"><feFuncR type="linear" slope="0" intercept="0.0"/><feFuncG type="linear" slope="0" intercept="0.0"/><feFuncB type="linear" slope="0" intercept="0.0"/><feFuncA type="linear" slope="0.19" intercept="0"/></feComponentTransfer></filter></defs><g id="p.23"><path fill="#a23e79" d="m1696.8124 995.21594c-37.60547 -55.94928 -130.54858 -291.97552 -179.77173 -276.99475c-49.223022 14.980774 -153.17224 310.93005 -115.566895 366.87927c37.60547 55.94922 291.97644 -16.203003 341.19946 -31.183716c49.223145 -14.980835 -8.255493 -2.751587 -45.86084 -58.700806z" fill-rule="evenodd"/></g><g filter="url(#shadowFilter-p.24)"><use xlink:href="#p.24" transform="matrix(1.0 0.0 0.0 1.0 0.0 8.0)"/></g><defs><filter id="shadowFilter-p.24" filterUnits="userSpaceOnUse"><feGaussianBlur in="SourceAlpha" stdDeviation="8.5" result="blur"/><feComponentTransfer in="blur" color-interpolation-filters="sRGB"><feFuncR type="linear" slope="0" intercept="0.0"/><feFuncG type="linear" slope="0" intercept="0.0"/><feFuncB type="linear" slope="0" intercept="0.0"/><feFuncA type="linear" slope="0.19" intercept="0"/></feComponentTransfer></filter></defs><g id="p.24"><path fill="#ff9dd7" d="m1166.6737 896.157c-20.484253 -14.674988 -40.663208 -26.90332 12.839844 -69.706055c53.503174 -42.802673 257.7328 -179.77252 308.1786 -187.11023c50.44568 -7.3377075 -21.707886 102.421265 -5.5040283 143.08398c16.203857 40.66278 114.34473 82.2428 102.72705 100.892395c-11.617676 18.649597 -133.60498 -14.67627 -172.4331 11.005249c-38.828003 25.68158 -42.19153 139.72089 -60.5354 143.08405c-18.343872 3.363037 -18.648682 -99.36401 -49.527588 -122.90552c-30.878784 -23.541565 -115.26111 -3.6688843 -135.74536 -18.343872z" fill-rule="evenodd"/></g><g filter="url(#shadowFilter-p.25)"><use xlink:href="#p.25" transform="matrix(1.0 0.0 0.0 1.0 0.0 8.0)"/></g><defs><filter id="shadowFilter-p.25" filterUnits="userSpaceOnUse"><feGaussianBlur in="SourceAlpha" stdDeviation="8.5" result="blur"/><feComponentTransfer in="blur" color-interpolation-filters="sRGB"><feFuncR type="linear" slope="0" intercept="0.0"/><feFuncG type="linear" slope="0" intercept="0.0"/><feFuncB type="linear" slope="0" intercept="0.0"/><feFuncA type="linear" slope="0.19" intercept="0"/></feComponentTransfer></filter></defs><g id="p.25"><path fill="#ff61be" d="m1424.974 15.399387c-17.732178 2.1399822 -59.617676 17.730972 -77.044556 27.514435c-17.427002 9.783466 -22.01355 18.03981 -27.51709 31.186352c-5.503418 13.146545 -9.784302 33.629486 -5.5039062 47.692917c4.2803955 14.063431 18.345581 25.986877 31.186401 36.687668c12.840698 10.700775 28.125977 24.153976 45.858154 27.51706c17.7323 3.3630676 45.248535 -0.30665588 60.535522 -7.3385925c15.286987 -7.0319214 24.765991 -21.400696 31.18628 -34.853012c6.42041 -13.452316 7.3359375 -33.631676 7.3359375 -45.860893c0 -12.229225 -1.2213135 -16.202538 -7.3359375 -27.514435c-6.114624 -11.311901 -19.568237 -31.18504 -29.351685 -40.356956c-9.783447 -9.171917 -11.616821 -16.814524 -29.349121 -14.674541z" fill-rule="evenodd"/></g><g filter="url(#shadowFilter-p.26)"><use xlink:href="#p.26" transform="matrix(1.0 0.0 0.0 1.0 0.0 8.0)"/></g><defs><filter id="shadowFilter-p.26" filterUnits="userSpaceOnUse"><feGaussianBlur in="SourceAlpha" stdDeviation="8.5" result="blur"/><feComponentTransfer in="blur" color-interpolation-filters="sRGB"><feFuncR type="linear" slope="0" intercept="0.0"/><feFuncG type="linear" slope="0" intercept="0.0"/><feFuncB type="linear" slope="0" intercept="0.0"/><feFuncA type="linear" slope="0.19" intercept="0"/></feComponentTransfer></filter></defs><g id="p.26"><path fill="#a23e79" d="m599.84827 225.63033c-29.656189 11.923889 -101.19818 20.791779 -102.72705 71.54332c-1.5288696 50.751526 69.0954 212.78784 93.55383 232.96588c24.458435 20.17804 16.814514 -98.7511 53.19684 -111.897644c36.382324 -13.146545 154.3963 53.502197 165.0971 33.01837c10.700806 -20.483826 -78.57391 -118.316284 -100.892395 -155.92126c-22.318481 -37.60498 -14.980286 -58.090546 -33.01837 -69.708664c-18.038025 -11.618103 -45.553772 -11.923874 -75.20996 0z" fill-rule="evenodd"/></g></g></svg>